<svg xmlns="http://www.w3.org/2000/svg" viewBox="0 0 256 256" role="img" aria-label="S-I">
  <defs>
    <linearGradient id="bg" x1="36" y1="28" x2="220" y2="228" gradientUnits="userSpaceOnUse">
      <stop offset="0" stop-color="#1f6feb"/>
      <stop offset="0.48" stop-color="#2da44e"/>
      <stop offset="1" stop-color="#24292f"/>
    </linearGradient>
    <filter id="shadow" x="-20%" y="-20%" width="140%" height="140%">
      <feDropShadow dx="0" dy="8" stdDeviation="10" flood-color="#000000" flood-opacity="0.25"/>
    </filter>
  </defs>
  <rect x="18" y="18" width="220" height="220" rx="46" fill="url(#bg)"/>
  <path d="M64 84c0-20 18-34 46-34 20 0 36 6 49 17l-18 25c-10-8-21-12-34-12-11 0-17 4-17 11 0 8 8 11 29 16 30 8 46 20 46 48 0 22-19 37-50 37-24 0-47-8-63-24l20-24c12 12 27 18 43 18 13 0 20-5 20-13 0-7-6-11-28-17-30-8-43-21-43-48Z" fill="#ffffff" filter="url(#shadow)"/>
  <rect x="174" y="66" width="14" height="124" rx="7" fill="#ffffff" opacity="0.92"/>
  <rect x="196" y="66" width="14" height="124" rx="7" fill="#ffffff" opacity="0.92"/>
  <rect x="168" y="122" width="48" height="12" rx="6" fill="#ffffff" opacity="0.78"/>
</svg>
